<?xml version="1.0" encoding="utf-8"?>
<!-- Generator: Adobe Illustrator 26.0.3, SVG Export Plug-In . SVG Version: 6.00 Build 0)  -->
<svg version="1.1" id="Layer_1" xmlns="http://www.w3.org/2000/svg" xmlns:xlink="http://www.w3.org/1999/xlink" x="0px" y="0px"
	 viewBox="0 0 650 265" style="enable-background:new 0 0 650 265;" xml:space="preserve">
<style type="text/css">
	.st0{fill-rule:evenodd;clip-rule:evenodd;fill:none;stroke:#7510F7;stroke-width:4;stroke-miterlimit:10;}
	.st1{fill-rule:evenodd;clip-rule:evenodd;fill:#FFFFFF;stroke:#7510F7;stroke-width:2.0814;}
	.st2{fill-rule:evenodd;clip-rule:evenodd;fill:#7510F7;}
	.st3{fill:#7510F7;}
	.st4{fill:none;stroke:#7510F7;stroke-width:2.0814;}
</style>
<path id="Case_00000080908570457100200580000009439191414563095980_" class="st0" d="M241.5,18.6h250.7c4.7,0,8.6,4.3,8.6,9.6v180.7
	c0,5.3-3.9,9.6-8.6,9.6H241.5c-4.7,0-8.6-4.3-8.6-9.6V28.2C232.9,22.9,236.8,18.6,241.5,18.6z"/>
<desc>Created with Sketch.</desc>
<path id="Keyboard_00000003097528816295216360000007305611028385830273_" class="st1" d="M214.6,218.8v8c0,4.6,3.3,8.5,7.7,8.5H512
	c4.2,0,7.7-3.7,7.7-8.5v-8c0-0.2-0.1-0.5-0.4-0.5H215C214.7,218.5,214.6,218.6,214.6,218.8z"/>
<path id="Notch" class="st2" d="M387.1,218.6h-40.6c1.7,4.8,5.7,8,10.4,8h19.6C381.4,226.7,385.4,223.4,387.1,218.6z"/>
<path id="Screen" class="st3" d="M247.8,37.3H486c1.5,0,2.9,1.4,2.9,3.2v156.1c0,1.7-1.3,3.2-2.9,3.2H247.8c-1.5,0-2.9-1.4-2.9-3.2
	v-156C245,38.7,246.3,37.3,247.8,37.3z"/>
<path id="Oval-8_00000100346093229551425460000008109631733125529758_" class="st4" d="M565.3,236.1c12,0,21.7,0,21.7,0
	c0-13.3-9.7-24.1-21.7-24.1s-21.7,10.8-21.7,24.1C543.6,236.1,553.3,236.1,565.3,236.1z"/>
<path id="Rectangle-11_00000090990707072807596750000015618346053581567873_" class="st2" d="M565.3,211.2L565.3,211.2
	c0.8,0,1.4,0.8,1.4,1.5v2c0,0.9-0.7,1.5-1.4,1.5l0,0c-0.8,0-1.4-0.8-1.4-1.5v-2C563.9,212,564.6,211.2,565.3,211.2z"/>
<path id="Rectangle-17" class="st4" d="M108.4,190C96.6,190,87,200.7,87,213.8s9.6,23.8,21.4,23.8H196c1.3,0,2.2-1.1,2.2-2.5v-3.7
	c0-1.7-1.1-3.1-2.6-3.2c-10-0.8-15.3-5.7-15.3-14.4s5.3-13.6,15.3-14.4c1.5-0.2,2.6-1.5,2.6-3.2v-3.7c0-1.4-1-2.5-2.2-2.5L108.4,190
	L108.4,190z"/>
<path id="Rectangle-19" class="st4" d="M197.2,229.2c0,0.5-0.3,0.8-0.7,0.8l0,0h-10.3H108c-8.1,0-14.5-7.3-14.5-16.1
	s6.5-16.1,14.5-16.1h78.2h10.3l0,0c0.4,0,0.7,0.3,0.7,0.8"/>
<path id="Rectangle-18" class="st2" d="M106.6,207h73.2c0.8,0,1.4,0.8,1.4,1.5l0,0c0,0.9-0.7,1.5-1.4,1.5h-73.2
	c-0.8,0-1.4-0.8-1.4-1.5l0,0C105.1,207.7,105.8,207,106.6,207z"/>
<path id="Rectangle-18_00000029766028033485813500000008957123079294928805_" class="st2" d="M106.6,217.1h73.2
	c0.8,0,1.4,0.8,1.4,1.5l0,0c0,0.9-0.7,1.5-1.4,1.5h-73.2c-0.8,0-1.4-0.8-1.4-1.5l0,0C105.1,217.7,105.8,217.1,106.6,217.1z"/>
</svg>
