<?xml version="1.0" encoding="utf-8"?>
<!-- Generator: Adobe Illustrator 26.0.3, SVG Export Plug-In . SVG Version: 6.00 Build 0)  -->
<svg version="1.1" id="Layer_1" xmlns="http://www.w3.org/2000/svg" xmlns:xlink="http://www.w3.org/1999/xlink" x="0px" y="0px"
	 viewBox="0 0 500 462" style="enable-background:new 0 0 500 462;" xml:space="preserve">
<style type="text/css">
	.st0{fill:#FFFFFF;}
</style>
<desc>Created with Sketch.</desc>
<path class="st0" d="M392.8,366.4c-15.2-35.4-67.4-163.1-84-196.3c-0.1-0.3-0.3-0.6-0.4-0.8c-26-43.8-91.4-42.8-115.7,2l-108,192.6
	c-3.8,6.9,1.8,4.8,9.9,4.8l75.4,0.7c3.9,0,10.8,1,12.7-2.4l15.8-37.4c23,1.2,52.5,1.2,90.2-0.6c2.2,7.7,4.2,13.9,6.7,20.5
	c7.6,19.7,5.2,18.3,15.6,18.3c12.3,0,16.1,0.4,31,0.2 M216.1,287.8l26.4-62.4c4.4-7.9,15-8.5,18.2,0c6.6,17.8,12,40.3,17.5,62.7
	C257.2,288.6,236.3,288.6,216.1,287.8z"/>
</svg>
