<?xml version="1.0" encoding="utf-8"?>
<!-- Generator: Adobe Illustrator 26.0.3, SVG Export Plug-In . SVG Version: 6.00 Build 0)  -->
<svg version="1.1" id="Layer_1" xmlns="http://www.w3.org/2000/svg" xmlns:xlink="http://www.w3.org/1999/xlink" x="0px" y="0px"
	 viewBox="0 0 612 792" style="enable-background:new 0 0 612 792;" xml:space="preserve">
<style type="text/css">
	.st0{fill:#FBC58F;}
	.st1{fill-rule:evenodd;clip-rule:evenodd;fill:#B085A0;}
	.st2{fill:#FAC48E;}
	.st3{fill:#B25340;}
	.st4{fill:#7B5132;}
	.st5{fill:#E78567;}
	.st6{fill:#F9C490;}
	.st7{fill:#ECA571;}
	.st8{fill:#4E110E;}
	.st9{fill:#6C4428;}
	.st10{fill:#6A4127;}
	.st11{fill:#4E100C;}
	.st12{fill:#FCFBFA;}
	.st13{fill:#E68566;}
	.st14{fill:#E78566;}
	.st15{fill:#FACEA4;}
	.st16{fill:#FBCEA1;}
	.st17{fill:#EFBC8B;}
	.st18{fill:#F9C38F;}
	.st19{fill:#FAF8F7;}
	.st20{fill:#4C0F0C;}
	.st21{fill-rule:evenodd;clip-rule:evenodd;fill:#B7C1DB;}
	.st22{fill-rule:evenodd;clip-rule:evenodd;fill:#E7ADCE;}
	.st23{fill-rule:evenodd;clip-rule:evenodd;fill-opacity:0.16;}
	.st24{fill-rule:evenodd;clip-rule:evenodd;fill:#F4F4F4;}
</style>
<path class="st0" d="M661.9,584.6"/>
<g>
	<ellipse class="st1" cx="306" cy="423.1" rx="306" ry="301.9"/>
	<ellipse class="st2" cx="294.2" cy="302.3" rx="167.8" ry="199.6"/>
	<path class="st3" d="M333.9,450.1c-19.1,6.3-37.2,5.9-53.9-6.8c3.2-5.4,8.3-7.7,14.2-8.3c12-1.3,23.4,0.2,33.3,7.7
		C330.1,444.6,331.8,447.6,333.9,450.1z"/>
	<path class="st4" d="M163.8,618.5c-8.6,0.3-17.2,0-25.3-3c-8.6-3.2-15.8-8.2-18.1-17.7c-2.5-10.2,0.8-17.4,10.7-24.4
		c-14.2-2.7-26.4-9-35.7-19.9c-9.8-11.5-15.9-24.7-10.5-39.8c7.1-20,21.8-31.7,43.1-34.8c1.2-0.2,2.4-0.2,3.6-0.4
		c0.1,0,0.2-0.2,0.8-0.7c-3-13.8-6.2-27.9-9.2-42.1c-6.5-30.5-13.6-60.9-19.1-91.6c-4.6-25.6-6.4-51.6-4.1-77.7
		c2.1-24.4,12.2-45.5,25.6-65.5c34.3-51.2,82.4-83.4,140.5-102.1c21.2-6.8,42.5-13,64.7-15.3c42.5-4.6,79.3,7.9,109.5,38.3
		c31.6,31.9,51.5,69.7,58.1,114.3c2.4,16.3,1.7,32.4,0.1,48.7c-3.2,31.7-6.2,63.4-9.3,95.2c-3.4,35.3-6.8,70.6-10.3,105.9
		c-0.1,1.2-0.1,2.4-0.2,4.1c12.3-4.4,23.9-4.3,34.5,3.6c6.8,5.1,12.2,11.3,14.1,19.8c2.8,12.3-2.3,29.8-19.2,35.5
		c9.1,2.6,14,8.6,16.3,16.9c3,10.9-0.7,20-8.3,27.7c-10.8,11.1-24.8,16.8-39.5,20c-10.9,2.4-22.2,3-33.3,4.4
		c-1.3-0.6-2.6-1.1-3.8-1.9c-8.9-5.9-17.8-12-26.7-17.9c-7.3-4.6-14.6-9.4-22-13.8c-5.3-3.1-10.8-5.7-16.2-8.5
		c-5.7-3.1-11.3-6.3-17.2-9.1c-2.7-1.2-3.8-2.6-4-5.6c-1.6-19.3-3.3-38.6-5.1-58c-0.3-3.5-0.6-7-0.8-10.5
		c17.1-8.4,33.1-18.6,47.5-31.1c23.1-20,41.6-43.3,51.6-72.5c0.6-1.7,0.5-4,0-5.7c-2.2-6.7-4.8-13.3-7.1-20
		c-4.8-13.9-9.4-27.8-14.1-41.6c2.2-1.3,4.4-2.6,6.6-3.9c-0.1-0.5-0.2-0.9-0.3-1.4c-2.8,0-5.7,0-8.5,0c-2.3-7.2-4.6-14.4-6.8-21.7
		c-3.7-12.5-7.2-25-10.9-37.5c1.2-0.5,2.3-1.1,3.4-1.6c-2-2.8-4.2-5.8-6.4-8.8c-5.7-20-9.9-40.4-12.3-61.8
		c-31.9,44.3-71.3,78.5-119,102.9c-0.3-0.3-0.5-0.5-0.8-0.8c4.9-9.3,9.8-18.7,15.2-28.9c-16.2,9-31.4,17.5-46.7,26
		c0.9,0.3,1.5,0.6,2.2,0.8c-7.8-0.5-15.5,0.2-22.1,4.3c-5.6,3.4-10.5,7.9-15.7,11.9c-3.7,1.8-7.4,3.7-11.1,5.4
		c-6.7,3-6.7,2.9-6.6,10.4c0,0.4,0,0.8,0,1.2c0,6.9,0.1,13.8,0,20.8c-0.1,11.2-0.2,22.3-0.3,33.5c-5.2,3-5.1,13.1,0,16.2
		c9.4,33.8,29.1,60.3,57.1,81.1c11.8,8.8,24.6,16,37.9,22.1c-0.7,6.6-1.4,13.1-2.1,19.7c-0.9,8.9-1.8,17.9-2.6,26.8
		c-1.1,7.2-2.3,14.4-3.4,21.6c-0.4,2.6-1.5,4.2-4.2,5.2c-4.3,1.7-8.4,3.9-12.6,5.9c-13.1,6.2-26.1,12.3-39.2,18.5
		c-15.8,8.8-31.7,17.7-47.5,26.5C166.8,617,165.3,617.7,163.8,618.5z M263.8,246.3c-5.2-4.5-12-5.8-18.8-6.5
		c-20.2-1.9-34.3,7.7-39.3,14.9C224.5,252,244,249.2,263.8,246.3z"/>
	<path class="st5" d="M215.9,588.2c13.1-6.2,26.1-12.3,39.2-18.5c-0.9,10-1.5,20.1-2.9,30.1c-1.5,10.4,1,15.7,9.7,17.2
		c5.5,0.9,11.1,1.7,16.7,1.6c12.9-0.2,25.9-0.5,38.7-1.5c18.7-1.4,36.8-5.5,54.4-11.9c6-2.2,6-2.2,5.5-8.4c-0.1-0.7-0.2-1.3-0.3-2
		c-0.9-6.8-1.7-13.6-2.5-20.4c5.4,2.8,11,5.4,16.2,8.5c7.5,4.4,14.7,9.2,22,13.8c0.2,1.3,0.1,2.7,0.5,3.9c3,10.3,6,20.6,8.9,30.9
		c0.8,2.9,1.2,5.9,1.8,8.9c-22.2,6.8-44.8,11.4-68,12.8c-20.3,1.2-40.6,2-60.9,1.4c-31.7-1-63.1-5.3-93.6-14.3
		c3.1-9.4,6.5-18.8,9.2-28.3C212.8,604.1,214.2,596.1,215.9,588.2z"/>
	<path class="st6" d="M423.9,640.3c-0.6-3-1-6-1.8-8.9c-2.9-10.3-6-20.6-8.9-30.9c-0.4-1.2-0.3-2.6-0.5-3.9c8.9,6,17.8,12,26.7,17.9
		c1.2,0.8,2.5,1.3,3.8,1.9c3.4,2.9,6.9,5.7,10.3,8.6c0.8,0.7,1.6,1.3,3,2.5C445.8,633.4,434.8,636.8,423.9,640.3z"/>
	<path class="st2" d="M374.4,574.4c0.8,6.8,1.7,13.6,2.5,20.4c0.1,0.7,0.2,1.3,0.3,2c0.5,6.2,0.5,6.2-5.5,8.4
		c-17.6,6.3-35.8,10.4-54.4,11.9c-12.9,1-25.8,1.3-38.7,1.5c-5.5,0.1-11.2-0.7-16.7-1.6c-8.7-1.4-11.2-6.8-9.7-17.2
		c1.5-9.9,2-20,2.9-30.1c4.2-2,8.3-4.2,12.6-5.9c2.6-1,3.8-2.6,4.2-5.2c1.1-7.2,2.3-14.4,3.4-21.6c2.8-1.1,5.8-2,8.4-3.3
		c8.7-4.3,17.2-8.9,25.8-13.3c7.8-4,15.6-7.9,23.5-11.7c5-2.4,10.1-4.6,15.1-6.9c1.7,19.3,3.5,38.6,5.1,58c0.2,2.9,1.3,4.3,4,5.6
		C363.1,568.1,368.7,571.4,374.4,574.4z"/>
	<path class="st7" d="M348.1,501.9c-5,2.3-10.1,4.5-15.1,6.9c-7.9,3.8-15.7,7.7-23.5,11.7c-8.6,4.4-17.2,9-25.8,13.3
		c-2.7,1.4-5.6,2.2-8.4,3.3c0.9-8.9,1.7-17.9,2.6-26.8c0.7-6.6,1.4-13.1,2.1-19.7c5.9,1.9,11.7,3.9,17.7,5.6
		c16.4,4.6,32.3,2.9,47.7-4.1c0.6-0.3,1.2-0.5,1.9-0.7C347.6,494.8,347.8,498.4,348.1,501.9z"/>
	<path class="st8" d="M345.8,316c-3,0.2-3.1-1.5-2.8-3.9c2-14.2,14.6-26.6,29.6-29.1c20.7-3.6,41.4,9.3,47.6,29.9
		c0.7,2.2,1.7,2.4,3.4,2.2c2.8,0,5.7,0,8.5,0c0.1,0.5,0.2,0.9,0.3,1.4c-2.2,1.3-4.4,2.7-6.6,4c-0.3,0-0.5,0-0.8,0.1
		c-7.4,2.6-7.4,2.6-10.8-4.1c-0.2-0.7-0.3-1.4-0.6-2c-4.4-9.5-12.3-15-21.2-19c-18.1-8.1-36-1-44.4,17.2
		C347.5,313.8,346.6,314.9,345.8,316z"/>
	<path class="st9" d="M405.4,255.9c-1.5-1.1-2.9-2.9-4.5-3.1c-15.7-2.3-31.4-4.4-47.1-6.6c-1.7-0.2-3.4-0.2-6.2-0.4
		c6.4-4.6,12.6-6.5,19.1-7.5c11.9-1.7,22.8,0.9,32.9,7.3c0.6,0.4,2.1,3.5,2.9-0.1c2.2,3,4.4,6,6.4,8.8
		C407.7,254.9,406.5,255.4,405.4,255.9z"/>
	<path class="st10" d="M263.8,244.9c-19.8,2.9-39.2,5.7-58.1,8.4c5-7.2,19.2-16.8,39.3-14.9C251.8,239.1,258.6,240.4,263.8,244.9z"
		/>
	<path class="st11" d="M272.8,437c-2.7-6.2-5.2-12.5-8.2-18.5c-1.4-2.8-3.7-5.1-5.6-7.8c-1.6,1.1-2.6,1.7-3.6,2.4
		c-0.4-0.1-0.9-0.2-1.3-0.4c0.4-2.9,0.7-5.8,1.1-8.7c4.4,7.3,11,5.3,16.8,5.6c0.4,8,3.2,11.3,11,12.7c5.2,0.9,10.5,1.7,15.8,2.2
		c13.7,1.1,27.4,1.6,41-1.3c8.9-1.9,11.1-4.6,11.5-13.5c1.6,0,3.2-0.2,4.8,0c4,0.3,7.8,0.3,9.2-4.7c0.1-0.4,0.8-0.6,2.3-1.7
		c0.4,3.7,0.8,6.6,1.2,9.5c-0.4,0.1-0.8,0.2-1.3,0.3c-0.9-0.6-1.9-1.2-3.6-2.3c-1.9,2.5-4.3,4.9-5.7,7.7c-3.5,6.8-6.6,13.9-9.8,20.8
		c-4.8,3.6-9.6,7.2-14.4,10.8c-2.1-2.5-3.8-5.5-6.4-7.4c-9.9-7.5-21.3-9-33.3-7.7c-5.9,0.7-11.1,2.9-14.2,8.3
		C277.6,441.2,275.2,439.1,272.8,437z"/>
	<path class="st12" d="M352.9,409.7c-0.4,8.9-2.6,11.6-11.8,13.5c-14,2.9-28.2,2.5-42.3,1.3c-5.5-0.4-10.9-1.2-16.3-2.2
		c-8.2-1.4-11-4.8-11.4-12.8c3.6,0,7.3,0,10.9,0c1.1,0,2.2,0,3.3,0h67.6C352.8,409.6,352.9,409.6,352.9,409.7z"/>
	<path class="st13" d="M339.9,443.8c3.4-2.8,6.8-5.7,10.2-8.5c-0.4,1.8-0.5,3.7-1.1,5.3c-5.5,14-15,22.1-29,23.6
		c-12.1,1.3-23.4-0.6-33.5-8.3c-6.4-4.9-11.1-11.7-14.8-19.3c-0.6-1.1-0.5-2.7-0.7-4c2.5,2.4,5.1,4.9,7.6,7.3
		c15.4,13,32.2,14.9,49.6,10C332.4,448.8,336.4,446.7,339.9,443.8z"/>
	<path class="st14" d="M360.6,409.5c-28,0-56,0-84,0c-1.4,0-2.8,0-4.3,0c-3.2,0-6.4,0-9.5,0.1c0.2-0.8,0.3-2.1,0.6-2.3
		c19.5-8.9,39.6-13.8,60.5-11.6c9.7,1.1,19.3,3.7,28.8,6.6C355.5,403.3,359.3,406.2,360.6,409.5z"/>
	<path class="st15" d="M200.8,383.5c0-0.4,0-0.8,0-1.2c0.1,0,0.2,0,0.3,0c0,0.4,0,0.8,0,1.2C201,383.5,200.9,383.5,200.8,383.5z"/>
	<path class="st16" d="M187.7,383.3c-0.2-0.3-0.4-0.6-0.6-0.8C187.3,382.7,187.5,383,187.7,383.3L187.7,383.3z"/>
	<path class="st17" d="M362.9,353.6c-0.3-0.3-0.6-0.6-0.8-1C362.3,353,362.6,353.3,362.9,353.6z"/>
	<path class="st18" d="M282.5,409.5c1.1,0,2.1,0,3.2,0C284.6,409.5,283.5,409.5,282.5,409.5z"/>
	
		<ellipse transform="matrix(2.656478e-02 -0.9996 0.9996 2.656478e-02 44.2571 696.4922)" class="st19" cx="379.8" cy="325.5" rx="32.9" ry="36"/>
	<ellipse class="st20" cx="379.7" cy="322.1" rx="20.5" ry="25.8"/>
	
		<ellipse transform="matrix(2.656478e-02 -0.9996 0.9996 2.656478e-02 -98.3409 549.9094)" class="st19" cx="233.2" cy="325.4" rx="32.9" ry="36"/>
	<ellipse class="st20" cx="233.2" cy="322.5" rx="20.5" ry="25.8"/>
	<path class="st8" d="M267.9,316c3,0.2,3.1-1.5,2.8-3.9c-2-14.2-14.6-26.6-29.6-29.1c-20.7-3.6-41.4,9.3-47.6,29.9
		c-0.7,2.2-1.7,2.4-3.4,2.2c-2.8,0-5.7,0-8.5,0c-0.1,0.5-0.2,0.9-0.3,1.4c2.2,1.3,4.4,2.7,6.6,4c0.3,0,0.5,0,0.8,0.1
		c7.4,2.6,7.4,2.6,10.8-4.1c0.2-0.7,0.3-1.4,0.6-2c4.4-9.5,12.3-15,21.2-19c18.1-8.1,36-1,44.4,17.2
		C266.2,313.8,267.1,314.9,267.9,316z"/>
	<path class="st4" d="M185,371.2c0.1,5.5,0.1,11.1,0.2,16.6"/>
	<path class="st4" d="M181.8,370.6c0.7,0,1.3-0.1,2-0.1c0.2,0,0.4,0,0.5,0.1c0.4,0.2,0.2,1-0.2,1c0-0.4,0.6-0.4,0.8,0
		c0.2,0.3,0.1,0.7,0,1.1c-0.3,1.6,0,3.3,0.1,5c0.1,1,0.1,2.1,0.1,3.1c0,2.4,0,4.8,0,7.2c0,0.2,0,0.4-0.1,0.6
		c-0.1,0.1-0.2,0.2-0.4,0.3c-1.1,0.6-2.3,1-3.5,1.3c-0.6,0.1-1.2,0.2-1.8,0.1s-1.2-0.6-1.7-1c-2.4-2.3-3.6-5.7-3.7-9.1
		s0.9-6.7,2.3-9.8c0.3-0.7,0.6-1.3,1.1-1.9c0.5-0.5,1.2-0.9,1.9-0.8c0.4,0,0.8,0.2,1.1,0.4c0.5,0.2,0.9,0.4,1.4,0.7
		c0.3,0.1,0.6,0.3,0.8,0.6c0.2,0.4,0,0.9,0.4,1.2"/>
	<g id="Hoodie">
		<path id="path-7_00000044151878893841588750000012145747833552647819_" class="st21" d="M352.2,524.3c30,4.2,53,15.7,53,45.6v-0.9
			c42.8,22.7,72.8,75.7,72.8,137.5l0,0c0,10.3-8.3,18.6-18.6,18.6H165.6c-10.3,0-18.6-8.3-18.6-18.6l0,0c0-61.9,30-114.8,72.8-137.5
			c0.5-29.2,23.3-40.6,52.9-44.6v39.2c0,27.4,17.8,49.7,39.7,49.7s39.7-22.3,39.7-49.7l0,0L352.2,524.3z"/>
	</g>
	<g id="Hoodie_00000140707949076288272370000011597579142916509578_">
		<path id="path-7_00000073707037968806702070000005958170590329082276_" class="st22" d="M352.2,524.3c30,4.2,53,15.7,53,45.6v-0.9
			c42.8,22.7,72.8,75.7,72.8,137.5l0,0c0,10.3-8.3,18.6-18.6,18.6H165.6c-10.3,0-18.6-8.3-18.6-18.6l0,0c0-61.9,30-114.8,72.8-137.5
			c0.5-29.2,23.3-40.6,52.9-44.6v39.2c0,27.4,17.8,49.7,39.7,49.7s39.7-22.3,39.7-49.7l0,0L352.2,524.3z"/>
	</g>
	<path id="Shadow" class="st23" d="M378.5,531c24.9,5.6,42.1,16.5,42.1,38c0,38.3-54.7,69.3-110.1,69.3s-110.1-31.1-110.1-69.3
		c0-21.5,17.2-32.6,42.1-38c-15,6.5-24.8,17.5-24.8,35.7c0,39.6,46,71.8,92.7,71.8s92.7-32.1,92.7-71.8c0-17.8-9.3-28.7-23.8-35.2
		L378.5,531z"/>
	<path id="Straps" class="st24" d="M264.1,620.8v81.9h-11.6v-88C256.2,616.9,260,618.9,264.1,620.8z M375,614.7v68.5
		c0,3.3-2.6,5.9-5.8,5.9s-5.8-2.7-5.8-5.9v-62.4C367.5,618.9,371.3,616.9,375,614.7z"/>
</g>
</svg>
